# File created by Blade
# Date/Time:  Wed Jan 21 17:16:23 2015
# Frame Rate: 120.000 fps
#------------------------------------------------------
:FULLY-SPECIFIED
:DEGREES
559
root 19.391277 16.121945 -12.710685 -174.817040 -10.764846 -191.107226
Spine 69.982085 -8.804123 1.907684
Head 1.150519 -3.114936 0.173822
LeftShoulder 22.408993 -42.034841 0.593543
LeftArm 36.393595 9.206867 -50.098634
LeftForeArm -1.024261 -0.000000 34.213230
LeftHand -8.782192 -0.000000 5.484018
LeftHandThumb1 -26.253704 0.000000 33.147579
RightShoulder 12.737582 3.140895 -2.656838
RightArm 44.428619 -1.647045 42.981497
RightForeArm -31.531029 0.000000 15.940385
RightHand -7.487614 -0.000000 -14.648313
RightHandThumb1 -24.326973 -0.000000 -32.862282
LeftUpLeg -23.266673 38.442775 -6.773172
LeftLeg 122.544488 -0.000000 -0.000000
LeftFoot 38.616984 9.338611 2.457073
LeftToeBase 50.613813 -0.000000 -0.000000
RightUpLeg -98.242853 -6.926093 49.359018
RightLeg 112.551265 -0.000000 -0.000000
RightFoot 16.537716 0.123355 17.556942
RightToeBase 33.757046 -0.000000 -0.000000
560
root 19.423739 16.086310 -12.732178 -174.712180 -10.693609 -191.436952
Spine 69.787680 -8.624713 1.710597
Head 1.164850 -3.285549 0.142157
LeftShoulder 22.462221 -42.082090 0.642222
LeftArm 36.898118 9.750767 -50.390110
LeftForeArm -1.925279 0.000000 34.199820
LeftHand -8.539274 -0.000000 4.595278
LeftHandThumb1 -26.253704 0.000000 33.147579
RightShoulder 12.546884 2.964131 -2.555173
RightArm 44.419663 -1.714852 43.171944
RightForeArm -31.737723 -0.000000 16.203591
RightHand -7.786906 -0.000000 -15.060003
RightHandThumb1 -24.326973 -0.000000 -32.862282
LeftUpLeg -23.208620 38.311340 -6.876855
LeftLeg 122.604478 -0.000000 -0.000000
LeftFoot 38.649763 9.366201 2.433112
LeftToeBase 50.625366 -0.000000 -0.000000
RightUpLeg -98.257010 -7.424498 50.021667
RightLeg 112.085993 -0.000000 -0.000000
RightFoot 17.080764 -0.779093 17.607082
RightToeBase 34.984007 -0.000000 -0.000000
561
root 19.453765 16.054333 -12.758161 -174.612634 -10.641006 -191.743734
Spine 69.593348 -8.503842 1.498074
Head 1.199720 -3.440879 0.094038
LeftShoulder 22.592386 -42.161603 0.630667
LeftArm 37.321127 10.498388 -50.537074
LeftForeArm -2.955579 0.000000 34.168205
LeftHand -8.291107 -0.000000 4.158024
LeftHandThumb1 -26.253704 0.000000 33.147579
RightShoulder 12.460258 2.834691 -2.473937
RightArm 44.276902 -1.760167 43.422915
RightForeArm -31.840271 -0.000000 16.548970
RightHand -7.897748 0.000000 -15.268056
RightHandThumb1 -24.326973 -0.000000 -32.862282
LeftUpLeg -23.137855 38.154168 -6.954817
LeftLeg 122.633670 -0.000000 -0.000000
LeftFoot 38.717210 9.505611 2.413584
LeftToeBase 50.633446 -0.000000 -0.000000
RightUpLeg -98.302514 -7.979769 50.679128
RightLeg 111.714955 -0.000000 -0.000000
RightFoot 17.839406 -1.770050 17.873598
RightToeBase 35.401096 -0.000000 -0.000000
562
root 19.486051 16.025815 -12.783319 -174.536114 -10.551033 -192.000202
Spine 69.419294 -8.327362 1.407210
Head 1.202913 -3.671194 0.029775
LeftShoulder 22.887192 -42.270769 0.503529
LeftArm 37.746139 11.277851 -50.646198
LeftForeArm -3.422947 -0.000000 34.043635
LeftHand -8.164023 -0.000000 3.442877
LeftHandThumb1 -26.253704 0.000000 33.147579
RightShoulder 12.324343 2.864985 -2.407674
RightArm 44.008381 -1.866397 43.720327
RightForeArm -32.039875 -0.000000 16.837721
RightHand -7.869166 -0.000000 -15.527167
RightHandThumb1 -24.326973 -0.000000 -32.862282
LeftUpLeg -23.043494 38.058238 -6.955958
LeftLeg 122.627104 -0.000000 -0.000000
LeftFoot 38.770774 9.633050 2.405094
LeftToeBase 50.582176 -0.000000 -0.000000
RightUpLeg -98.269576 -8.525659 51.369564
RightLeg 111.370365 -0.000000 -0.000000
RightFoot 18.450923 -2.548032 17.589850
RightToeBase 35.184484 -0.000000 -0.000000
563
root 19.525022 15.994934 -12.806954 -174.403669 -10.429031 -192.252340
Spine 69.207837 -8.141632 1.233232
Head 1.152055 -3.813462 -0.006143
LeftShoulder 22.989918 -42.206359 0.548480
LeftArm 38.366160 12.093838 -50.624658
LeftForeArm -3.776367 -0.000000 33.881380
LeftHand -7.845733 -0.000000 2.713333
LeftHandThumb1 -26.253704 0.000000 33.147579
RightShoulder 12.231987 2.804970 -2.311916
RightArm 43.876988 -1.954821 43.972320
RightForeArm -32.238381 -0.000000 16.972955
RightHand -7.545641 -0.000000 -16.022107
RightHandThumb1 -24.326973 -0.000000 -32.862282
LeftUpLeg -23.024913 37.964580 -6.996601
LeftLeg 122.641122 -0.000000 -0.000000
LeftFoot 38.728376 9.630042 2.471143
LeftToeBase 50.406127 -0.000000 -0.000000
RightUpLeg -98.232187 -9.005632 52.017006
RightLeg 110.982195 -0.000000 -0.000000
RightFoot 19.085735 -3.230814 17.438572
RightToeBase 34.882279 -0.000000 -0.000000
564
root 19.536963 15.963859 -12.834862 -174.276193 -10.560992 -192.669955
Spine 69.007116 -8.294891 0.816335
Head 1.148535 -3.795447 -0.061207
LeftShoulder 23.088657 -42.224570 0.550838
LeftArm 38.866846 13.014193 -50.565501
LeftForeArm -3.829063 -0.000000 33.644065
LeftHand -7.745699 -0.000000 2.258231
LeftHandThumb1 -26.253704 0.000000 33.147579
RightShoulder 12.261425 2.730799 -2.252242
RightArm 43.660503 -1.993920 44.315265
RightForeArm -32.450798 -0.000000 17.417630
RightHand -7.754690 -0.000000 -16.213831
RightHandThumb1 -24.326973 -0.000000 -32.862282
LeftUpLeg -22.961855 37.627218 -7.230461
LeftLeg 122.604494 -0.000000 -0.000000
LeftFoot 38.738123 9.623825 2.547674
LeftToeBase 50.480393 -0.000000 -0.000000
RightUpLeg -98.500100 -9.686792 52.438290
RightLeg 110.713634 -0.000000 -0.000000
RightFoot 20.002258 -4.069150 17.664184
RightToeBase 34.920946 -0.000000 -0.000000
565
root 19.549033 15.935056 -12.864862 -174.133921 -10.728885 -193.063280
Spine 68.771880 -8.453602 0.566411
Head 1.154543 -3.892757 -0.103965
LeftShoulder 23.386559 -42.235731 0.361112
LeftArm 39.437981 14.045439 -50.391951
LeftForeArm -3.714166 0.000000 33.265307
LeftHand -7.390018 -0.000000 1.847183
LeftHandThumb1 -26.253704 0.000000 33.147579
RightShoulder 12.165277 2.765480 -2.161684
RightArm 43.373851 -2.044600 44.693166
RightForeArm -32.844745 -0.000000 17.776632
RightHand -7.860318 -0.000000 -16.340721
RightHandThumb1 -24.326973 -0.000000 -32.862282
LeftUpLeg -22.915407 37.266137 -7.460649
LeftLeg 122.522171 -0.000000 -0.000000
LeftFoot 38.794177 9.739139 2.573633
LeftToeBase 50.249669 -0.000000 -0.000000
RightUpLeg -98.783630 -10.385967 52.912491
RightLeg 110.465806 -0.000000 -0.000000
RightFoot 20.609988 -4.996889 17.959154
RightToeBase 35.816278 -0.000000 -0.000000
566
root 19.556912 15.903291 -12.898652 -173.979764 -10.880983 -193.506208
Spine 68.542934 -8.637486 0.149921
Head 1.150962 -3.909748 -0.142857
LeftShoulder 23.567492 -42.225086 0.271410
LeftArm 39.978739 15.068495 -50.234820
LeftForeArm -3.414962 -0.000000 32.899816
LeftHand -7.146378 -0.000000 1.552713
LeftHandThumb1 -26.253704 0.000000 33.147579
RightShoulder 12.113939 2.527792 -2.053709
RightArm 43.393457 -2.039905 44.919332
RightForeArm -32.950039 0.000000 17.980480
RightHand -7.744033 -0.000000 -16.663339
RightHandThumb1 -24.326973 -0.000000 -32.862282
LeftUpLeg -22.863327 36.897891 -7.742920
LeftLeg 122.440312 -0.000000 -0.000000
LeftFoot 38.721834 9.942151 2.534863
LeftToeBase 50.050250 -0.000000 -0.000000
RightUpLeg -99.091154 -11.057898 53.206811
RightLeg 110.231355 -0.000000 -0.000000
RightFoot 21.512317 -5.807648 18.169804
RightToeBase 36.104390 -0.000000 -0.000000
567
root 19.599226 15.875834 -12.933035 -173.906634 -10.817693 -193.742161
Spine 68.436572 -8.524963 -0.098756
Head 1.019408 -3.928058 -0.052165
LeftShoulder 23.791029 -42.203394 0.246274
LeftArm 40.608849 16.014209 -50.013382
LeftForeArm -2.934253 0.000000 32.390440
LeftHand -6.873968 -0.000000 1.451307
LeftHandThumb1 -26.253704 0.000000 33.147579
RightShoulder 12.055157 2.485315 -1.957403
RightArm 43.314614 -2.073159 45.265498
RightForeArm -33.247357 -0.000000 18.196572
RightHand -7.689377 -0.000000 -16.846132
RightHandThumb1 -24.326973 -0.000000 -32.862282
LeftUpLeg -22.723622 36.771549 -7.680077
LeftLeg 122.337117 -0.000000 -0.000000
LeftFoot 38.689122 9.960940 2.475652
LeftToeBase 50.494176 -0.000000 -0.000000
RightUpLeg -99.049761 -11.586351 53.596632
RightLeg 109.800846 -0.000000 -0.000000
RightFoot 22.487963 -6.759050 18.438553
RightToeBase 36.414205 -0.000000 -0.000000
568
root 19.638572 15.847196 -12.966969 -173.800503 -10.776470 -193.996718
Spine 68.296507 -8.452729 -0.405536
Head 0.934308 -3.868240 0.071902
LeftShoulder 24.025127 -42.255836 0.217959
LeftArm 41.119361 16.978346 -49.822168
LeftForeArm -2.586567 -0.000000 31.842169
LeftHand -6.310418 -0.000000 1.104381
LeftHandThumb1 -26.253704 0.000000 33.147579
RightShoulder 12.018350 2.553787 -1.789773
RightArm 43.222703 -2.244300 45.544438
RightForeArm -33.513810 -0.000000 18.325569
RightHand -7.718024 -0.000000 -17.046125
RightHandThumb1 -24.326973 -0.000000 -32.862282
LeftUpLeg -22.631894 36.613931 -7.661963
LeftLeg 122.245999 -0.000000 -0.000000
LeftFoot 38.638868 10.144672 2.423492
LeftToeBase 50.236757 -0.000000 -0.000000
RightUpLeg -99.040761 -12.091257 53.895930
RightLeg 109.387126 -0.000000 -0.000000
RightFoot 23.369025 -7.596092 18.646025
RightToeBase 36.784477 -0.000000 -0.000000
